<?xml version="1.0" encoding="iso-8859-1"?>
<!-- Generator: Adobe Illustrator 19.0.0, SVG Export Plug-In . SVG Version: 6.00 Build 0)  -->
<svg version="1.1" id="Capa_1" xmlns="http://www.w3.org/2000/svg" xmlns:xlink="http://www.w3.org/1999/xlink" x="0px" y="0px"
	 viewBox="0 0 60 60" style="enable-background:new 0 0 60 60;" xml:space="preserve">
<g>
	<path d="M55.929,20.246c-1.694,0-3.799,0.604-6.69,1.55l-0.379-1.622l0.001,0L44.986,3.608c-0.237-1.427-1.164-2.641-2.478-3.249
		c-1.241-0.574-2.789-0.447-4.051,0.316L35.439,2.5c-3.282,1.984-7.597,1.984-10.879,0l-3.018-1.824
		c-1.263-0.764-2.812-0.89-4.051-0.316c-1.314,0.607-2.241,1.822-2.465,3.185L11.14,20.174l0,0l-0.379,1.622
		c-2.891-0.946-4.996-1.55-6.689-1.55C1.37,20.246,0,21.831,0,24.957c0,6.235,5.313,11.739,13.364,14.97
		c2.243,9.81,7.19,16.182,13.584,17.708l-0.655,0.655c-0.391,0.391-0.391,1.023,0,1.414c0.195,0.195,0.451,0.293,0.707,0.293
		s0.512-0.098,0.707-0.293l1.737-1.737c0.186,0.008,0.368,0.03,0.555,0.03s0.37-0.023,0.555-0.03l1.737,1.737
		c0.195,0.195,0.451,0.293,0.707,0.293s0.512-0.098,0.707-0.293c0.391-0.391,0.391-1.023,0-1.414l-0.655-0.655
		c6.395-1.526,11.341-7.898,13.584-17.708C54.687,36.696,60,31.192,60,24.957C60,21.831,58.63,20.246,55.929,20.246z M31.532,55.879
		l0.175-0.175c0.391-0.391,0.391-1.023,0-1.414s-1.023-0.391-1.414,0L30,54.583l-0.293-0.293c-0.391-0.391-1.023-0.391-1.414,0
		s-0.391,1.023,0,1.414l0.175,0.175c-5.856-0.814-10.534-6.293-12.848-15.108c2.441,0.796,5.05,1.374,7.751,1.737
		c0.247,0.034,0.493,0.068,0.742,0.098c0.259,0.031,0.519,0.057,0.78,0.084c0.322,0.033,0.645,0.064,0.971,0.091
		c0.231,0.019,0.461,0.037,0.693,0.053c0.379,0.026,0.762,0.047,1.145,0.064c0.188,0.009,0.375,0.019,0.563,0.026
		c0.575,0.02,1.152,0.032,1.735,0.032s1.16-0.013,1.735-0.032c0.188-0.006,0.375-0.017,0.563-0.026
		c0.384-0.018,0.766-0.038,1.145-0.064c0.232-0.016,0.462-0.034,0.693-0.053c0.325-0.027,0.649-0.058,0.971-0.091
		c0.26-0.027,0.521-0.053,0.78-0.084c0.249-0.03,0.495-0.065,0.742-0.098c2.701-0.364,5.31-0.941,7.751-1.737
		C42.066,49.587,37.388,55.065,31.532,55.879z M43.535,27.496c-8.757,4.596-17.987,4.604-27.105-0.017l-4.449-2.119l1.006-4.306
		l2.56,1.219c4.822,2.444,9.725,3.683,14.572,3.684h0c4.852,0,9.678-1.242,14.31-3.673l2.582-1.23l1.006,4.306L43.535,27.496z"/>
</g>
<g>
</g>
<g>
</g>
<g>
</g>
<g>
</g>
<g>
</g>
<g>
</g>
<g>
</g>
<g>
</g>
<g>
</g>
<g>
</g>
<g>
</g>
<g>
</g>
<g>
</g>
<g>
</g>
<g>
</g>
</svg>
