<?xml version="1.0" encoding="iso-8859-1"?>
<!-- Generator: Adobe Illustrator 19.0.0, SVG Export Plug-In . SVG Version: 6.00 Build 0)  -->
<svg version="1.1" id="Capa_1" xmlns="http://www.w3.org/2000/svg" xmlns:xlink="http://www.w3.org/1999/xlink" x="0px" y="0px"
	 viewBox="0 0 512.002 512.002" style="enable-background:new 0 0 512.002 512.002;" xml:space="preserve">
<path style="fill:#FFBF14;" d="M258.08,41.705l67.816,140.705c0.227,0.47,0.674,0.795,1.191,0.865l154.775,21.017
	c1.29,0.175,1.806,1.763,0.865,2.663L369.865,314.933c-0.377,0.361-0.548,0.887-0.455,1.4l27.84,153.694
	c0.232,1.281-1.119,2.262-2.266,1.646l-137.569-73.972c-0.46-0.247-1.013-0.247-1.472,0l-137.569,73.972
	c-1.146,0.616-2.498-0.365-2.266-1.646l27.84-153.694c0.093-0.513-0.078-1.039-0.455-1.4L30.632,206.955
	c-0.941-0.9-0.425-2.488,0.865-2.663l154.775-21.017c0.517-0.07,0.964-0.395,1.191-0.865L255.28,41.705
	C255.845,40.532,257.515,40.532,258.08,41.705z"/>
<g>
	<path style="fill:#EAA200;" d="M240.406,72.566l44.769,92.888c3.733,7.746,11.122,13.086,19.648,14.201l21.074,2.756L258.08,41.705
		c-0.565-1.173-2.235-1.173-2.8,0L240.406,72.566z"/>
	<path style="fill:#EAA200;" d="M482.728,206.955c0.941-0.9,0.425-2.488-0.865-2.663l-34.765-4.721L332.883,308.842
		c-0.406,0.388-0.589,0.953-0.489,1.505l25.622,141.447l36.969,19.879c1.146,0.616,2.498-0.365,2.266-1.646l-27.84-153.694
		c-0.093-0.513,0.078-1.039,0.455-1.4L482.728,206.955z"/>
	<path style="fill:#EAA200;" d="M255.944,397.701l-10.613-5.538c-7.741-4.04-16.98-3.982-24.671,0.153l-100.238,53.899
		l-4.313,23.813c-0.232,1.281,1.119,2.262,2.266,1.646L255.944,397.701z"/>
</g>
<g>
	<path style="fill:#FF6D3A;" d="M168.93,307.072L83.991,225.81c-1.407-1.346-0.635-3.721,1.294-3.983l116.481-15.817
		c0.773-0.105,1.442-0.591,1.781-1.294l51.038-105.893c0.845-1.754,3.343-1.754,4.188,0l51.036,105.893
		c0.339,0.703,1.008,1.189,1.781,1.294l116.482,15.817c1.929,0.262,2.701,2.637,1.294,3.983l-84.939,81.262
		c-0.564,0.54-0.819,1.326-0.68,2.094l20.952,115.668c0.347,1.916-1.674,3.384-3.388,2.462l-103.532-55.67
		c-0.687-0.37-1.514-0.37-2.202,0l-103.533,55.671c-1.715,0.922-3.735-0.546-3.388-2.462l20.952-115.669
		C169.749,308.398,169.494,307.612,168.93,307.072z"/>
	<circle style="fill:#FF6D3A;" cx="256.66" cy="44.738" r="27.03"/>
	<circle style="fill:#FF6D3A;" cx="119.96" cy="467.26" r="27.03"/>
	<circle style="fill:#FF6D3A;" cx="393.36" cy="467.26" r="27.03"/>
	<circle style="fill:#FF6D3A;" cx="477.47" cy="206.46" r="27.03"/>
	<circle style="fill:#FF6D3A;" cx="34.527" cy="206.46" r="27.03"/>
</g>
<circle style="fill:#FFBF14;" cx="256" cy="281.29" r="136.99"/>
<path style="fill:#EAA200;" d="M256,144.297c-6.91,0-13.698,0.517-20.333,1.504c66.015,9.823,116.658,66.738,116.658,135.487
	s-50.644,125.663-116.658,135.487c6.635,0.987,13.423,1.504,20.333,1.504c75.658,0,136.991-61.333,136.991-136.991
	S331.659,144.297,256,144.297z"/>
<circle style="fill:#E9FEFF;" cx="256" cy="281.29" r="108.41"/>
<path style="fill:#D0EFEF;" d="M256,172.877c-6.878,0-13.603,0.648-20.125,1.872c50.257,9.435,88.286,53.543,88.286,106.539
	s-38.03,97.104-88.286,106.539c6.522,1.224,13.247,1.872,20.125,1.872c59.874,0,108.411-48.537,108.411-108.411
	C364.412,221.415,315.875,172.877,256,172.877z"/>
<path style="fill:#FFBF14;" d="M147.589,281.289c0,15.765,3.369,30.743,9.42,44.257h197.983c6.051-13.514,9.42-28.492,9.42-44.257
	c0-15.765-3.369-30.743-9.42-44.257H157.009C150.958,250.546,147.589,265.523,147.589,281.289z"/>
<path style="fill:#EAA200;" d="M364.339,277.501c-0.022-0.651-0.044-1.301-0.078-1.949c-0.018-0.355-0.045-0.707-0.067-1.061
	c-0.037-0.596-0.073-1.192-0.119-1.785c-0.029-0.366-0.065-0.73-0.097-1.095c-0.051-0.579-0.102-1.158-0.162-1.734
	c-0.038-0.367-0.083-0.731-0.125-1.097c-0.066-0.573-0.132-1.145-0.207-1.715c-0.047-0.36-0.1-0.718-0.151-1.077
	c-0.081-0.574-0.163-1.148-0.254-1.719c-0.055-0.348-0.114-0.695-0.173-1.042c-0.097-0.58-0.197-1.159-0.303-1.735
	c-0.062-0.335-0.127-0.669-0.192-1.004c-0.114-0.587-0.231-1.172-0.355-1.755c-0.068-0.319-0.138-0.638-0.208-0.956
	c-0.132-0.597-0.268-1.192-0.41-1.786c-0.072-0.301-0.146-0.601-0.22-0.901c-0.151-0.61-0.308-1.219-0.47-1.825
	c-0.074-0.279-0.149-0.557-0.226-0.835c-0.173-0.627-0.352-1.252-0.535-1.874c-0.075-0.254-0.149-0.507-0.226-0.76
	c-0.197-0.649-0.401-1.295-0.609-1.939c-0.072-0.223-0.143-0.446-0.217-0.668c-0.224-0.676-0.456-1.349-0.693-2.02
	c-0.066-0.187-0.131-0.375-0.198-0.561c-0.256-0.711-0.521-1.419-0.791-2.123c-0.055-0.143-0.108-0.288-0.164-0.431
	c-0.297-0.764-0.603-1.524-0.917-2.279c-0.034-0.081-0.066-0.162-0.099-0.243c-0.35-0.838-0.71-1.672-1.081-2.499h-40.274
	c6.055,13.516,9.444,28.487,9.444,44.257s-3.39,30.741-9.444,44.257h40.274c0.37-0.827,0.73-1.66,1.08-2.498
	c0.034-0.082,0.067-0.166,0.101-0.248c0.313-0.754,0.618-1.512,0.915-2.274c0.056-0.144,0.11-0.29,0.165-0.435
	c0.27-0.704,0.534-1.41,0.79-2.121c0.067-0.187,0.132-0.375,0.198-0.562c0.237-0.67,0.469-1.342,0.692-2.018
	c0.074-0.223,0.145-0.447,0.218-0.671c0.208-0.643,0.412-1.289,0.609-1.937c0.077-0.252,0.151-0.506,0.226-0.759
	c0.184-0.623,0.363-1.248,0.536-1.876c0.076-0.277,0.151-0.555,0.226-0.834c0.162-0.607,0.319-1.215,0.47-1.826
	c0.074-0.299,0.148-0.599,0.219-0.9c0.142-0.594,0.278-1.19,0.411-1.787c0.07-0.318,0.14-0.636,0.208-0.954
	c0.124-0.583,0.241-1.169,0.355-1.756c0.065-0.334,0.13-0.668,0.192-1.003c0.107-0.577,0.206-1.156,0.303-1.736
	c0.058-0.347,0.117-0.693,0.172-1.041c0.09-0.571,0.172-1.145,0.254-1.719c0.051-0.359,0.104-0.718,0.151-1.078
	c0.075-0.569,0.141-1.141,0.207-1.713c0.042-0.366,0.087-0.731,0.125-1.098c0.06-0.576,0.111-1.155,0.162-1.734
	c0.032-0.365,0.069-0.729,0.097-1.096c0.047-0.593,0.082-1.189,0.119-1.785c0.022-0.354,0.049-0.706,0.067-1.061
	c0.034-0.648,0.056-1.298,0.078-1.949c0.01-0.304,0.027-0.607,0.035-0.912c0.025-0.956,0.038-1.914,0.038-2.876
	s-0.013-1.92-0.038-2.876C364.365,278.108,364.349,277.805,364.339,277.501z"/>
<path d="M173.421,271.576c0.028-1.56,1.513-2.993,5.086-2.931c4.126,0.072,5.049,2.002,6.86,2.033
	c2.215,0.039,3.169-2.713,3.193-4.071c0.068-3.925-7.27-4.558-9.937-4.604c-6.291-0.11-12.934,2.642-13.066,10.19
	c-0.207,11.775,15.764,10.999,15.657,17.089c-0.043,2.415-2.625,3.276-4.94,3.235c-4.68-0.082-6.124-3.833-8.489-3.875
	c-1.912-0.033-3.466,2.456-3.496,4.167c-0.059,3.322,5.42,6.64,12.013,6.756c7.297,0.128,12.65-3.704,12.777-10.95
	C189.302,275.933,173.333,276.608,173.421,271.576z"/>
<path d="M216.18,262.438c-1.963-0.034-3.938,0.636-3.967,2.296l-0.217,12.329l-10.015-0.176l0.217-12.329
	c0.029-1.661-1.921-2.399-3.883-2.435c-1.963-0.034-3.938,0.636-3.967,2.297l-0.563,32.005c-0.028,1.61,1.92,2.45,3.883,2.485
	c1.963,0.034,3.939-0.736,3.968-2.347l0.24-13.638l10.014,0.176l-0.239,13.638c-0.028,1.61,1.92,2.45,3.883,2.484
	c1.962,0.035,3.939-0.735,3.968-2.346l0.563-32.006C220.093,263.212,218.143,262.472,216.18,262.438z"/>
<path d="M247.732,269.309c1.51,0.026,2.394-1.568,2.427-3.431c0.028-1.61-0.646-3.384-2.307-3.413l-17.915-0.315
	c-1.711-0.03-3.436,0.745-3.464,2.355l-0.563,31.955c-0.028,1.61,1.669,2.446,3.38,2.477l17.915,0.314
	c1.66,0.029,2.396-1.72,2.425-3.33c0.032-1.861-0.795-3.487-2.305-3.514l-13.486-0.237l0.15-8.555l7.549,0.133
	c1.66,0.029,2.394-1.569,2.417-2.928c0.028-1.61-0.802-3.085-2.312-3.111l-7.548-0.133l0.149-8.505L247.732,269.309z"/>
<path d="M279.639,273.283c0.145-8.202-5.296-10.865-12.189-10.986l-10.417-0.184c-1.46-0.025-2.436,1.064-2.457,2.323l-0.563,32.005
	c-0.028,1.61,1.92,2.45,3.883,2.485c1.963,0.034,3.939-0.736,3.968-2.347l0.213-12.128l3.322,0.059l6.658,13.507
	c0.535,1.066,1.484,1.486,2.491,1.504c2.314,0.04,4.969-2.027,5.003-3.989c0.005-0.252-0.04-0.605-0.235-0.911l-5.944-11.229
	C276.917,282.095,279.54,278.92,279.639,273.283z M267.164,278.501l-4.982-0.088l0.165-9.36l4.981,0.088
	c2.818,0.05,4.509,1.237,4.447,4.76C271.713,277.423,269.982,278.55,267.164,278.501z"/>
<path d="M288.908,262.28c-1.963-0.034-3.938,0.636-3.967,2.297l-0.563,32.005c-0.028,1.61,1.92,2.45,3.883,2.485
	c1.963,0.034,3.939-0.736,3.968-2.347l0.563-32.006C292.82,263.053,290.87,262.315,288.908,262.28z"/>
<path d="M320.13,262.469l-17.463-0.308c-1.711-0.03-3.436,0.745-3.464,2.355l-0.563,31.955c-0.028,1.61,1.92,2.45,3.883,2.485
	c1.963,0.034,3.939-0.736,3.968-2.347l0.229-12.983l7.599,0.134c1.661,0.029,2.394-1.569,2.418-2.928
	c0.028-1.61-0.802-3.085-2.312-3.111l-7.599-0.134l0.149-8.505l13.033,0.229c1.51,0.026,2.394-1.568,2.427-3.431
	C322.464,264.271,321.79,262.498,320.13,262.469z"/>
<path d="M347.023,262.469l-17.463-0.308c-1.711-0.03-3.436,0.745-3.464,2.355l-0.563,31.955c-0.028,1.61,1.92,2.45,3.883,2.485
	c1.963,0.034,3.939-0.736,3.968-2.347l0.229-12.983l7.599,0.134c1.661,0.029,2.394-1.569,2.418-2.928
	c0.028-1.61-0.802-3.085-2.312-3.111l-7.599-0.134l0.149-8.505l13.033,0.229c1.51,0.026,2.394-1.568,2.427-3.431
	C349.357,264.271,348.684,262.498,347.023,262.469z"/>
<path d="M361.838,328.611c5.875-13.123,9.203-27.012,9.923-41.364c0.002-0.03,0.002-0.06,0.004-0.09
	c0.047-0.951,0.085-1.904,0.109-2.859c0.026-1,0.039-2.003,0.039-3.009s-0.013-2.009-0.039-3.009
	c-0.024-0.959-0.062-1.915-0.109-2.869c-0.001-0.026-0.002-0.053-0.003-0.08c-0.72-14.353-4.048-28.241-9.924-41.364
	c-0.052-0.115-0.12-0.218-0.177-0.329c-18.208-40.215-58.72-68.26-105.66-68.26s-87.453,28.047-105.66,68.262
	c-0.056,0.111-0.125,0.213-0.176,0.327c-5.876,13.123-9.204,27.011-9.924,41.364c-0.001,0.026-0.002,0.053-0.003,0.08
	c-0.047,0.955-0.085,1.911-0.109,2.869c-0.026,1-0.039,2.003-0.039,3.009s0.013,2.009,0.039,3.009
	c0.024,0.955,0.062,1.908,0.109,2.859c0.001,0.03,0.002,0.06,0.004,0.09c0.72,14.352,4.048,28.241,9.923,41.364
	c0.052,0.117,0.123,0.222,0.181,0.336C168.553,369.158,209.063,397.2,256,397.2c46.936,0,87.446-28.042,105.656-68.251
	C361.714,328.835,361.785,328.729,361.838,328.611z M256,180.377c36.736,0,68.945,19.734,86.595,49.154h-173.19
	C187.056,200.111,219.265,180.377,256,180.377z M256,382.2c-36.735,0-68.944-19.734-86.595-49.154h173.19
	C324.945,362.467,292.736,382.2,256,382.2z M356.813,285.622c-0.009,0.209-0.014,0.418-0.024,0.627
	c-0.062,1.286-0.156,2.566-0.265,3.842c-0.034,0.387-0.065,0.774-0.103,1.159c-0.11,1.133-0.245,2.261-0.393,3.386
	c-0.072,0.54-0.147,1.08-0.227,1.618c-0.147,0.994-0.31,1.986-0.487,2.974c-0.12,0.666-0.249,1.328-0.382,1.99
	c-0.114,0.567-0.237,1.132-0.36,1.697c-0.234,1.066-0.481,2.127-0.748,3.18c-0.095,0.373-0.194,0.746-0.293,1.118
	c-0.326,1.225-0.672,2.442-1.043,3.649c-0.091,0.298-0.185,0.595-0.279,0.892c-0.402,1.268-0.829,2.526-1.28,3.772
	c-0.092,0.256-0.185,0.511-0.28,0.767c-0.218,0.588-0.44,1.174-0.669,1.756H162.02c-0.229-0.583-0.451-1.168-0.669-1.756
	c-0.095-0.255-0.188-0.511-0.28-0.767c-0.45-1.244-0.876-2.5-1.278-3.766c-0.095-0.301-0.19-0.602-0.283-0.904
	c-0.369-1.203-0.715-2.417-1.04-3.639c-0.099-0.374-0.199-0.748-0.294-1.123c-0.267-1.053-0.514-2.113-0.748-3.179
	c-0.123-0.565-0.247-1.13-0.36-1.697c-0.133-0.661-0.262-1.324-0.382-1.99c-0.177-0.988-0.339-1.979-0.487-2.974
	c-0.08-0.538-0.155-1.077-0.227-1.617c-0.148-1.126-0.283-2.255-0.393-3.388c-0.038-0.384-0.069-0.769-0.103-1.155
	c-0.11-1.278-0.204-2.558-0.266-3.845c-0.01-0.208-0.015-0.418-0.024-0.627c-0.06-1.44-0.099-2.883-0.099-4.333
	s0.039-2.893,0.099-4.333c0.009-0.209,0.014-0.418,0.024-0.627c0.062-1.287,0.156-2.567,0.266-3.845
	c0.034-0.385,0.065-0.771,0.103-1.155c0.11-1.133,0.245-2.261,0.393-3.387c0.072-0.541,0.147-1.081,0.227-1.619
	c0.147-0.994,0.309-1.984,0.486-2.972c0.12-0.667,0.25-1.331,0.383-1.993c0.113-0.564,0.236-1.125,0.358-1.687
	c0.234-1.069,0.482-2.134,0.75-3.19c0.094-0.372,0.193-0.742,0.292-1.112c0.326-1.226,0.672-2.443,1.043-3.651
	c0.091-0.298,0.185-0.596,0.28-0.893c0.403-1.269,0.829-2.527,1.28-3.774c0.092-0.254,0.184-0.508,0.278-0.762
	c0.218-0.588,0.441-1.175,0.67-1.758h187.96c0.229,0.583,0.451,1.169,0.67,1.758c0.094,0.254,0.186,0.508,0.278,0.762
	c0.452,1.249,0.879,2.509,1.282,3.78c0.093,0.294,0.186,0.587,0.276,0.882c0.372,1.21,0.719,2.431,1.046,3.66
	c0.098,0.369,0.196,0.737,0.29,1.107c0.268,1.057,0.516,2.122,0.75,3.192c0.123,0.562,0.245,1.123,0.358,1.687
	c0.133,0.662,0.263,1.326,0.383,1.993c0.177,0.987,0.339,1.978,0.486,2.972c0.08,0.538,0.156,1.078,0.227,1.619
	c0.148,1.125,0.282,2.252,0.392,3.385c0.038,0.386,0.07,0.773,0.103,1.16c0.109,1.277,0.204,2.556,0.265,3.842
	c0.01,0.208,0.015,0.418,0.024,0.627c0.06,1.44,0.099,2.883,0.099,4.333S356.873,284.182,356.813,285.622z"/>
<path d="M357.76,433.901c1.475,0.793,3.073,1.186,4.665,1.186c2.025,0,4.038-0.636,5.763-1.889c3.079-2.237,4.571-5.954,3.894-9.7
	l-8.34-46.042c22.842-25.563,36.751-59.269,36.751-96.167c0-5.6-0.331-11.123-0.955-16.559l35.015-33.5
	c2.751-2.631,3.729-6.515,2.553-10.135s-4.249-6.187-8.022-6.7l-48.737-6.618c-20.119-33.902-53.698-58.912-93.323-67.616
	l-21.492-44.593c-1.651-3.429-5.042-5.56-8.849-5.561c-0.001,0-0.001,0-0.002,0c-3.806,0-7.197,2.13-8.851,5.559l-21.334,44.263
	c-40.364,8.408-74.599,33.711-94.961,68.148l-47.261,6.417c-3.771,0.513-6.844,3.079-8.02,6.698
	c-1.176,3.62-0.199,7.503,2.552,10.136l33.791,32.328c-0.714,5.813-1.089,11.729-1.089,17.731c0,37.505,14.367,71.716,37.882,97.425
	l-8.112,44.786c-0.678,3.745,0.814,7.462,3.894,9.699c1.726,1.253,3.737,1.889,5.764,1.889c1.59,0,3.189-0.392,4.663-1.185
	l39.863-21.434c18.425,8.537,38.933,13.312,60.539,13.312c21.891,0,42.655-4.902,61.267-13.653L357.76,433.901z M332.951,403.53
	c6.297-3.978,12.268-8.424,17.861-13.297l4.596,25.372L332.951,403.53z M416.425,227.814L396.371,247
	c-1.937-7.927-4.527-15.6-7.714-22.957L416.425,227.814z M256.68,111.753l12.358,25.64c-4.296-0.386-8.643-0.595-13.037-0.595
	c-3.911,0-7.784,0.162-11.617,0.468L256.68,111.753z M115.888,245.947l-18.953-18.133l26.324-3.574
	C120.251,231.211,117.777,238.463,115.888,245.947z M157.952,415.606l4.414-24.365c5.439,4.639,11.225,8.88,17.313,12.683
	L157.952,415.606z M126.509,281.289c0-71.402,58.09-129.491,129.491-129.491c71.402,0,129.492,58.089,129.492,129.491
	S327.402,410.78,256,410.78C184.599,410.78,126.509,352.691,126.509,281.289z"/>
<path d="M210.424,134.774c1.05,0.506,2.158,0.746,3.251,0.746c2.789,0,5.469-1.564,6.761-4.246l25.838-53.608
	c3.28,1.037,6.769,1.6,10.388,1.6c3.631,0,7.13-0.567,10.42-1.611l26.056,54.062c1.292,2.682,3.971,4.246,6.761,4.246
	c1.093,0,2.202-0.24,3.251-0.746c3.731-1.798,5.299-6.281,3.5-10.013l-26.569-55.125c6.825-6.312,11.108-15.334,11.108-25.34
	c0-19.038-15.489-34.527-34.527-34.527S222.135,25.7,222.135,44.738c0,10.019,4.293,19.052,11.133,25.365l-26.344,54.658
	C205.125,128.492,206.692,132.975,210.424,134.774z M256.661,25.211c10.768,0,19.527,8.76,19.527,19.527s-8.76,19.527-19.527,19.527
	s-19.526-8.76-19.526-19.527S245.895,25.211,256.661,25.211z"/>
<path d="M193.771,422.617l-45.73,24.589c-4.337-6.054-10.572-10.659-17.836-12.92l9.412-51.964c0.738-4.076-1.968-7.979-6.043-8.717
	c-4.079-0.739-7.979,1.967-8.717,6.043l-9.677,53.425c-16.782,2.337-29.745,16.773-29.745,34.188
	c0,19.038,15.489,34.527,34.527,34.527s34.527-15.489,34.527-34.527c0-2.113-0.201-4.179-0.567-6.189l46.95-25.245
	c3.648-1.961,5.016-6.509,3.054-10.157C201.969,422.023,197.421,420.654,193.771,422.617z M119.964,486.789
	c-10.768,0-19.527-8.76-19.527-19.527s8.76-19.527,19.527-19.527s19.527,8.76,19.527,19.527S130.731,486.789,119.964,486.789z"/>
<path d="M97.23,278.172c1.975,0,3.947-0.775,5.42-2.315c2.864-2.993,2.759-7.74-0.234-10.604l-40.085-38.35
	c4.167-5.651,6.651-12.612,6.716-20.141l56.728-7.703c4.104-0.557,6.98-4.336,6.423-8.441c-0.558-4.104-4.344-6.978-8.44-6.422
	l-57.865,7.857c-5.471-11.862-17.469-20.12-31.365-20.12C15.489,171.933,0,187.422,0,206.461c0,19.038,15.489,34.527,34.527,34.527
	c5.955,0,11.562-1.516,16.457-4.181l41.062,39.285C93.5,277.482,95.366,278.172,97.23,278.172z M34.527,225.988
	c-10.768,0-19.527-8.76-19.527-19.527c0-10.768,8.76-19.527,19.527-19.527s19.527,8.76,19.527,19.527
	C54.055,217.228,45.295,225.988,34.527,225.988z"/>
<path d="M398.179,433.079l-9.824-54.235c-0.738-4.076-4.64-6.784-8.717-6.043c-4.075,0.738-6.781,4.641-6.043,8.717l9.556,52.758
	c-7.273,2.255-13.517,6.859-17.861,12.916l-46.443-24.973c-3.646-1.961-8.196-0.595-10.157,3.054
	c-1.962,3.648-0.595,8.196,3.054,10.157l47.657,25.626c-0.368,2.015-0.57,4.087-0.57,6.207c0,19.038,15.488,34.527,34.526,34.527
	s34.527-15.489,34.527-34.527C427.886,449.86,414.943,435.432,398.179,433.079z M393.358,486.789
	c-10.767,0-19.526-8.76-19.526-19.527s8.76-19.527,19.526-19.527c10.768,0,19.527,8.76,19.527,19.527
	S404.126,486.789,393.358,486.789z"/>
<path d="M477.474,171.933c-13.829,0-25.779,8.176-31.287,19.945l-57.736-7.84c-4.088-0.562-7.883,2.317-8.44,6.422
	c-0.558,4.104,2.318,7.884,6.423,8.441l56.516,7.674c0.026,7.939,2.751,15.25,7.296,21.076l-41.133,39.353
	c-2.993,2.864-3.099,7.611-0.234,10.604c1.473,1.54,3.444,2.315,5.42,2.315c1.864,0,3.73-0.69,5.184-2.081l42.42-40.583
	c4.683,2.378,9.972,3.727,15.573,3.727c19.038,0,34.526-15.489,34.526-34.527C512,187.422,496.512,171.933,477.474,171.933z
	 M477.474,225.988c-10.768,0-19.527-8.76-19.527-19.527c0-10.768,8.76-19.527,19.527-19.527S497,195.694,497,206.461
	C497,217.228,488.24,225.988,477.474,225.988z"/>
<g>
</g>
<g>
</g>
<g>
</g>
<g>
</g>
<g>
</g>
<g>
</g>
<g>
</g>
<g>
</g>
<g>
</g>
<g>
</g>
<g>
</g>
<g>
</g>
<g>
</g>
<g>
</g>
<g>
</g>
</svg>
