<svg height="512pt" viewBox="-49 0 512 512" width="512pt" xmlns="http://www.w3.org/2000/svg"><path d="m345.996094 424.5h-278.417969v-277.789062c0-76.886719 62.324219-139.210938 139.207031-139.210938 76.882813 0 139.210938 62.324219 139.210938 139.210938zm0 0" fill="#e8e8ea"/><path d="m122.578125 399.5v-252.789062c0-62.976563 51.234375-114.210938 114.207031-114.210938 62.976563 0 114.210938 51.234375 114.210938 114.210938v252.789062zm0 0" fill="#e5e4e6"/><path d="m92.578125 399.5v-252.789062c0-62.976563 51.234375-114.210938 114.207031-114.210938 62.976563 0 114.210938 51.234375 114.210938 114.210938v252.789062zm0 0" fill="#e5e4e6"/><path d="m375.25 424.5h-336.929688c-12.035156 12.035156-18.785156 18.785156-30.820312 30.820312v49.179688h398.570312v-49.179688c-12.035156-12.035156-18.785156-18.785156-30.820312-30.820312zm0 0" fill="#e8e8ea"/><path d="m221.785156 8.300781c-4.925781-.53125-9.929687-.800781-15-.800781-76.882812 0-139.207031 62.324219-139.207031 139.210938v277.789062h30v-277.789062c0-71.816407 54.378906-130.929688 124.207031-138.410157zm0 0" fill="#e5e4e6"/><path d="m221.785156 33.480469c-4.910156-.644531-9.917968-.980469-15-.980469-62.972656 0-114.207031 51.234375-114.207031 114.210938v252.789062h30v-252.789062c0-57.894532 43.292969-105.863282 99.207031-113.230469zm0 0" fill="#a9a8ae"/><path d="m68.320312 424.5h-30l-30.820312 30.820312v49.179688h30v-49.179688zm0 0" fill="#e5e4e6"/><path d="m75.078125 146.710938c0-72.625 59.082031-131.710938 131.707031-131.710938s131.710938 59.085938 131.710938 131.710938v257.789062h15v-257.789062c0-80.898438-65.8125-146.710938-146.710938-146.710938-80.894531 0-146.707031 65.8125-146.707031 146.710938v257.789062h15zm0 0"/><path d="m206.785156 25c-67.109375 0-121.707031 54.597656-121.707031 121.710938v260.289062h243.417969v-260.289062c0-67.113282-54.597656-121.710938-121.710938-121.710938zm106.710938 367h-213.417969v-245.289062c0-58.839844 47.867187-106.710938 106.707031-106.710938s106.710938 47.871094 106.710938 106.710938zm0 0"/><path d="m378.355469 417h-343.140625l-35.214844 35.214844v59.785156h413.570312v-59.785156zm20.214843 80h-383.570312v-38.570312l26.429688-26.429688h330.714843l26.425781 26.429688zm0 0"/><path d="m231.929688 181.875v87.714844h15v-36.359375h26.011718l10.34375-10.34375v-30.667969l-10.34375-10.34375zm36.355468 34.800781-1.554687 1.554688h-19.800781v-21.359375h19.800781l1.554687 1.558594zm0 0"/><path d="m145.285156 233.230469h16.398438l4.960937 4.960937v31.398438h15v-37.609375l-6.222656-6.222657 6.222656-6.222656v-28.269531l-9.394531-9.394531h-41.964844v87.71875h15zm0-36.355469h20.75l.609375.605469v15.839843l-4.910156 4.910157h-16.449219zm0 0"/><path d="m199.285156 181.875h15v87.714844h-15zm0 0"/><path d="m124.929688 296.929688h163.714843v15h-163.714843zm0 0"/><path d="m162.183594 329.5h89.207031v15h-89.207031zm0 0"/><g fill="#fff"><path d="m388.570312 479.5h-15v-10.71875l-11.78125-11.78125h-78.859374v-15h85.070312l20.570312 20.570312zm-115.640624-22.5h-15v-15h15zm-25 0h-15v-15h15zm0 0"/><path d="m288.496094 146.710938c0-28.226563-14.320313-54.097657-38.304688-69.199219l7.996094-12.691407c28.367188 17.863282 45.304688 48.476563 45.308594 81.890626zm-46.308594-73.636719c-4.117188-1.988281-8.425781-3.636719-12.8125-4.898438l4.152344-14.414062c5.195312 1.496093 10.304687 3.449219 15.179687 5.804687zm-21.726562-6.929688c-4.488282-.757812-9.089844-1.144531-13.675782-1.144531v-15c5.425782 0 10.867188.453125 16.175782 1.351562zm0 0"/></g></svg>