<?xml version="1.0" encoding="iso-8859-1"?>
<!-- Generator: Adobe Illustrator 19.0.0, SVG Export Plug-In . SVG Version: 6.00 Build 0)  -->
<svg version="1.1" id="Capa_1" xmlns="http://www.w3.org/2000/svg" xmlns:xlink="http://www.w3.org/1999/xlink" x="0px" y="0px"
	 viewBox="0 0 480 480" style="enable-background:new 0 0 480 480;" xml:space="preserve">
<circle style="fill:#FFB398;" cx="80" cy="184" r="40"/>
<path style="fill:#FFD422;" d="M112,104L112,104c0-26.51-21.49-48-48-48v0c26.51,0,48-21.49,48-48h0c0,26.51,21.49,48,48,48v0
	C133.49,56,112,77.49,112,104z"/>
<path style="fill:#5AAAE7;" d="M336,456L336,456c0-26.51-21.49-48-48-48v0c26.51,0,48-21.49,48-48h0c0,26.51,21.49,48,48,48v0
	C357.49,408,336,429.49,336,456z"/>
<path style="fill:#FFD422;" d="M24,224L24,224c-8.837,0-16,7.163-16,16v56c0,8.837,7.163,16,16,16h40c8.837,0,16-7.163,16-16v0
	c0-8.837-7.163-16-16-16H40v32v33.373c0,4.243,1.686,8.313,4.686,11.314L80,392v64c0,8.837,7.163,16,16,16h0c8.837,0,16-7.163,16-16
	v-73.373c0-4.243-1.686-8.313-4.686-11.314L88,352l24-24l32,32v64c0,8.837,7.163,16,16,16h0c8.837,0,16-7.163,16-16v-73.373
	c0-4.243-1.686-8.313-4.686-11.314L128,296v-40h64c8.837,0,16-7.163,16-16v-56c0-8.837-7.163-16-16-16h0c-8.837,0-16,7.163-16,16v40
	h-48H24z"/>
<circle style="fill:#FFB398;" cx="368" cy="48" r="40"/>
<g>
	<path style="fill:#F40E34;" d="M408,88h48c8.837,0,16,7.163,16,16v48c0,8.837-7.163,16-16,16h0c-8.837,0-16-7.163-16-16v-32h-32
		v89.373c0,4.243-1.686,8.313-4.686,11.314L376,248l36.686,36.686c6.248,6.248,6.248,16.379,0,22.627l-1.373,1.373
		c-6.248,6.248-16.379,6.248-22.627,0l-49.373-49.373c-6.248-6.248-6.248-16.379,0-22.627L360,216l-24-24l-32,32v64
		c0,8.837-7.163,16-16,16h0c-8.837,0-16-7.163-16-16v-73.373c0-4.243,1.686-8.313,4.686-11.314L320,160v-40h-48
		c-8.837,0-16-7.163-16-16V48c0-8.837,7.163-16,16-16h0c8.837,0,16,7.163,16,16v40h32H408z"/>
	<rect x="360" y="40" style="fill:#F40E34;" width="16" height="24"/>
	<path style="fill:#F40E34;" d="M96,200H72v-16h16v-16h16v24C104,196.418,100.422,200,96,200z"/>
</g>
<path d="M80,232c26.469,0,48-21.531,48-48s-21.531-48-48-48s-48,21.531-48,48S53.531,232,80,232z M80,152c17.648,0,32,14.355,32,32
	s-14.352,32-32,32s-32-14.355-32-32S62.352,152,80,152z"/>
<path d="M64,64c22.055,0,40,17.945,40,40c0,4.418,3.578,8,8,8s8-3.582,8-8c0-22.055,17.945-40,40-40c4.422,0,8-3.582,8-8
	s-3.578-8-8-8c-22.055,0-40-17.945-40-40c0-4.418-3.578-8-8-8s-8,3.582-8,8c0,22.055-17.945,40-40,40c-4.422,0-8,3.582-8,8
	S59.578,64,64,64z M112,36.82c4.727,7.848,11.336,14.449,19.18,19.18c-7.844,4.73-14.453,11.332-19.18,19.18
	C107.273,67.332,100.664,60.73,92.82,56C100.664,51.27,107.273,44.668,112,36.82z"/>
<path d="M384,400c-22.055,0-40-17.945-40-40c0-4.418-3.578-8-8-8s-8,3.582-8,8c0,22.055-17.945,40-40,40c-4.422,0-8,3.582-8,8
	s3.578,8,8,8c22.055,0,40,17.945,40,40c0,4.418,3.578,8,8,8s8-3.582,8-8c0-22.055,17.945-40,40-40c4.422,0,8-3.582,8-8
	S388.422,400,384,400z M336,427.18c-4.727-7.848-11.336-14.449-19.18-19.18c7.844-4.73,14.453-11.332,19.18-19.18
	c4.727,7.848,11.336,14.449,19.18,19.18C347.336,412.73,340.727,419.332,336,427.18z"/>
<path d="M192,160c-13.234,0-24,10.766-24,24v32h-40v16h48c4.422,0,8-3.582,8-8v-40c0-4.41,3.586-8,8-8s8,3.59,8,8v56
	c0,4.41-3.586,8-8,8h-64c-4.422,0-8,3.582-8,8v40c0,2.121,0.844,4.156,2.344,5.656l43.313,43.313
	c1.508,1.512,2.344,3.523,2.344,5.66V424c0,4.41-3.586,8-8,8s-8-3.59-8-8v-64c0-2.121-0.844-4.156-2.344-5.656l-32-32
	c-3.125-3.125-8.188-3.125-11.313,0l-24,24c-3.125,3.125-3.125,8.188,0,11.313l19.313,19.313c1.508,1.512,2.344,3.523,2.344,5.66
	V456c0,4.41-3.586,8-8,8s-8-3.59-8-8v-64c0-2.121-0.844-4.156-2.344-5.656l-35.313-35.313c-1.508-1.512-2.344-3.523-2.344-5.66V320
	h16c13.234,0,24-10.766,24-24s-10.766-24-24-24H48v-24H32v32c0,4.418,3.578,8,8,8h24c4.414,0,8,3.59,8,8s-3.586,8-8,8H24
	c-4.414,0-8-3.59-8-8v-56c0-4.41,3.586-8,8-8v-16c-13.234,0-24,10.766-24,24v56c0,13.234,10.766,24,24,24h8v25.371
	c0,6.41,2.5,12.441,7.031,16.973L72,395.313V456c0,13.234,10.766,24,24,24s24-10.766,24-24v-73.371c0-6.41-2.5-12.441-7.031-16.973
	L99.313,352L112,339.313l24,24V424c0,13.234,10.766,24,24,24s24-10.766,24-24v-73.371c0-6.41-2.5-12.441-7.031-16.973L136,292.688
	V264h56c13.234,0,24-10.766,24-24v-56C216,170.766,205.234,160,192,160z"/>
<path d="M368,96c26.469,0,48-21.531,48-48S394.469,0,368,0s-48,21.531-48,48S341.531,96,368,96z M368,16c17.648,0,32,14.355,32,32
	s-14.352,32-32,32s-32-14.355-32-32S350.352,16,368,16z"/>
<path d="M456,80h-48v16h48c4.414,0,8,3.59,8,8v48c0,4.41-3.586,8-8,8s-8-3.59-8-8v-32c0-4.418-3.578-8-8-8h-32c-4.422,0-8,3.582-8,8
	v89.371c0,2.137-0.836,4.148-2.344,5.66l-27.313,27.313c-3.125,3.125-3.125,8.188,0,11.313l36.688,36.691
	c1.516,1.508,2.344,3.516,2.344,5.652s-0.828,4.145-2.344,5.656l-1.375,1.371c-3.125,3.125-8.188,3.121-11.313,0.004l-49.375-49.379
	c-1.516-1.508-2.344-3.516-2.344-5.652s0.828-4.145,2.344-5.656l20.688-20.688c3.125-3.125,3.125-8.188,0-11.313l-24-24
	c-3.125-3.125-8.188-3.125-11.313,0l-32,32c-1.5,1.5-2.344,3.535-2.344,5.656v64c0,4.41-3.586,8-8,8s-8-3.59-8-8v-73.371
	c0-2.137,0.836-4.148,2.344-5.66l43.313-43.313c1.5-1.5,2.344-3.535,2.344-5.656v-40c0-4.418-3.578-8-8-8h-48c-4.414,0-8-3.59-8-8
	V48c0-4.41,3.586-8,8-8s8,3.59,8,8v40c0,4.418,3.578,8,8,8h32V80h-24V48c0-13.234-10.766-24-24-24s-24,10.766-24,24v56
	c0,13.234,10.766,24,24,24h40v28.688l-40.969,40.969C266.5,202.188,264,208.219,264,214.629V288c0,13.234,10.766,24,24,24
	s24-10.766,24-24v-60.688l24-24L348.688,216l-15.031,15.027c-4.531,4.535-7.031,10.563-7.031,16.973s2.5,12.438,7.031,16.969
	l49.375,49.379c4.68,4.672,10.82,7.012,16.969,7.012c6.141,0,12.289-2.34,16.969-7.016l1.375-1.371
	c4.531-4.535,7.031-10.563,7.031-16.973s-2.5-12.438-7.031-16.969L387.313,248l21.656-21.656c4.531-4.531,7.031-10.563,7.031-16.973
	V128h16v24c0,13.234,10.766,24,24,24s24-10.766,24-24v-48C480,90.766,469.234,80,456,80z"/>
<rect x="360" y="40" width="16" height="24"/>
<path d="M104,192v-24H88v16H72v16h24C100.422,200,104,196.418,104,192z"/>
<g>
</g>
<g>
</g>
<g>
</g>
<g>
</g>
<g>
</g>
<g>
</g>
<g>
</g>
<g>
</g>
<g>
</g>
<g>
</g>
<g>
</g>
<g>
</g>
<g>
</g>
<g>
</g>
<g>
</g>
</svg>
