<svg height="512pt" viewBox="-89 0 512 512.001" width="512pt" xmlns="http://www.w3.org/2000/svg"><path d="m306.402344 462.355469v-185.285157c-11.636719 0-21.070313-9.433593-21.070313-21.070312s9.433594-21.070312 21.070313-21.070312v-185.285157c-11.636719 0-21.070313-9.433593-21.070313-21.074219h-235.691406c0 11.640626-9.433594 21.074219-21.070313 21.074219v185.285157c11.636719 0 21.070313 9.433593 21.070313 21.070312s-9.433594 21.070312-21.070313 21.070312v185.285157c11.636719 0 21.070313 9.433593 21.070313 21.074219h235.691406c0-11.640626 9.433594-21.074219 21.070313-21.074219zm0 0" fill="#ffb655"/><path d="m59.917969 58.570312h215.140625v394.859376h-215.140625zm0 0" fill="#787680"/><path d="m275.058594 146.976562-26.703125-56.414062h-100.367188l-47.171875 99.664062 33.164063 152.242188 7.023437-5.140625 14.570313 14.570313-15.058594 20.578124 10.667969 48.960938h93.980468l27.472657-126.109375c.796875.160156 1.609375.238281 2.421875.234375zm0 0" fill="#57565c"/><path d="m242.632812 295.328125-27.472656 126.109375h-93.980468l-10.664063-48.960938 15.058594-20.578124 101.042969-50.78125c1.144531.363281 2.363281.558593 3.625.558593 4.757812 0 8.867187-2.765625 10.804687-6.777343.523437.179687 1.050781.324218 1.585937.429687zm-131.628906 42 40.636719-82.132813c-.175781-1.546874-.007813-3.125.507813-4.609374-3.464844-1.675782-5.851563-5.222657-5.851563-9.328126 0-4.109374 2.386719-7.65625 5.851563-9.332031-1.265626-3.636719-.445313-7.835937 2.460937-10.738281 2.902344-2.90625 7.101563-3.722656 10.734375-2.457031 1.679688-3.464844 5.226562-5.855469 9.332031-5.855469 4.109375 0 7.65625 2.390625 9.332031 5.855469 3.632813-1.265625 7.832032-.449219 10.738282 2.457031 2.902344 2.902344 3.722656 7.101562 2.457031 10.738281 3.464844 1.675781 5.855469 5.222657 5.855469 9.332031 0 4.105469-2.390625 7.652344-5.855469 9.328126 1.265625 3.636718.445313 7.835937-2.457031 10.738281-1.152344 1.152343-2.503906 1.972656-3.941406 2.46875l6.691406 6.695312c-.074219-.546875-.113282-1.105469-.113282-1.675781 0-4.753906 2.765626-8.863281 6.777344-10.804688-1.464844-4.207031-.515625-9.070312 2.847656-12.433593 3.363282-3.363281 8.226563-4.3125 12.433594-2.847657 1.941406-4.011718 6.050782-6.777343 10.804688-6.777343 4.757812 0 8.863281 2.765625 10.804687 6.777343 4.207031-1.460937 9.0625-.515624 12.425781 2.839844l12.054688-55.339844-47.171875-99.664062h-100.371094l-47.171875 99.664062 33.164063 152.242188zm0 0" fill="#ffb655"/><path d="m194.746094 261.324219c2.902344-2.902344 3.722656-7.101563 2.457031-10.738281 3.464844-1.675782 5.855469-5.222657 5.855469-9.328126 0-4.109374-2.390625-7.65625-5.855469-9.332031 1.265625-3.636719.445313-7.835937-2.457031-10.738281-2.90625-2.90625-7.105469-3.722656-10.738282-2.457031-1.675781-3.464844-5.222656-5.855469-9.332031-5.855469-4.105469 0-7.652343 2.390625-9.332031 5.855469-3.632812-1.265625-7.832031-.449219-10.734375 2.457031-2.90625 2.902344-3.726563 7.101562-2.460937 10.738281-3.464844 1.675781-5.851563 5.222657-5.851563 9.332031 0 4.105469 2.386719 7.652344 5.851563 9.328126-1.265626 3.636718-.445313 7.835937 2.460937 10.738281 2.902344 2.90625 7.101563 3.722656 10.734375 2.457031 1.679688 3.464844 5.226562 5.855469 9.332031 5.855469 4.109375 0 7.65625-2.390625 9.332031-5.855469 3.632813 1.265625 7.832032.449219 10.738282-2.457031zm0 0" fill="#ff7956"/><path d="m253.484375 292.050781c3.363281-3.363281 4.308594-8.222656 2.847656-12.433593 4.011719-1.941407 6.777344-6.046876 6.777344-10.804688 0-4.753906-2.765625-8.863281-6.777344-10.804688 1.464844-4.207031.515625-9.070312-2.847656-12.433593s-8.226563-4.3125-12.433594-2.847657c-1.941406-4.011718-6.050781-6.777343-10.804687-6.777343-4.757813 0-8.867188 2.765625-10.804688 6.777343-4.210937-1.464843-9.074218-.515624-12.4375 2.847657-3.363281 3.363281-4.308594 8.226562-2.84375 12.433593-4.011718 1.941407-6.78125 6.050782-6.78125 10.804688s2.769532 8.863281 6.78125 10.804688c-1.464844 4.210937-.519531 9.070312 2.84375 12.433593 3.363282 3.363281 8.226563 4.3125 12.4375 2.847657 1.9375 4.011718 6.046875 6.78125 10.804688 6.78125 4.753906 0 8.863281-2.769532 10.804687-6.78125 4.207031 1.464843 9.070313.515624 12.433594-2.847657zm0 0" fill="#ff7956"/><path d="m97.9375 389.667969-24.703125-24.703125 37.769531-27.636719 14.570313 14.570313zm0 0" fill="#fff5cc"/><path d="m219.441406 294.898438c-4.210937 1.464843-9.074218.515624-12.4375-2.847657-3.363281-3.363281-4.308594-8.226562-2.84375-12.433593-3.535156-1.707032-6.097656-5.097657-6.660156-9.128907l-6.703125-6.699219c-2.195313.757813-4.59375.757813-6.789063-.007812-1.675781 3.464844-5.222656 5.855469-9.332031 5.855469-4.105469 0-7.652343-2.390625-9.332031-5.855469-3.632812 1.265625-7.832031.449219-10.734375-2.457031-1.722656-1.71875-2.707031-3.894531-2.960937-6.140625l-40.644532 82.144531 14.570313 14.570313 101.050781-50.78125c-3.160156-1-5.757812-3.269532-7.183594-6.21875zm0 0" fill="#fff5cc"/><g fill="#e8e8ea"><path d="m327.472656 28.570312c0 11.636719-9.433594 21.070313-21.070312 21.070313-11.636719 0-21.070313-9.433594-21.070313-21.070313 0-11.636718 9.433594-21.070312 21.070313-21.070312 11.636718 0 21.070312 9.433594 21.070312 21.070312zm0 0"/><path d="m327.472656 256c0 11.636719-9.433594 21.070312-21.070312 21.070312-11.636719 0-21.070313-9.433593-21.070313-21.070312s9.433594-21.070312 21.070313-21.070312c11.636718 0 21.070312 9.433593 21.070312 21.070312zm0 0"/><path d="m327.472656 483.429688c0 11.636718-9.433594 21.070312-21.070312 21.070312-11.636719 0-21.070313-9.433594-21.070313-21.070312 0-11.636719 9.433594-21.070313 21.070313-21.070313 11.636718 0 21.070312 9.433594 21.070312 21.070313zm0 0"/><path d="m49.640625 28.570312c0 11.636719-9.433594 21.070313-21.070313 21.070313-11.636718 0-21.070312-9.433594-21.070312-21.070313 0-11.636718 9.433594-21.070312 21.070312-21.070312 11.636719 0 21.070313 9.433594 21.070313 21.070312zm0 0"/><path d="m49.640625 256c0 11.636719-9.433594 21.070312-21.070313 21.070312-11.636718 0-21.070312-9.433593-21.070312-21.070312s9.433594-21.070312 21.070312-21.070312c11.636719 0 21.070313 9.433593 21.070313 21.070312zm0 0"/><path d="m49.640625 483.429688c0 11.636718-9.433594 21.070312-21.070313 21.070312-11.636718 0-21.070312-9.433594-21.070312-21.070312 0-11.636719 9.433594-21.070313 21.070312-21.070313 11.636719 0 21.070313 9.433594 21.070313 21.070313zm0 0"/></g><path d="m58.570312 462.355469v-185.285157c11.636719 0 21.070313-9.433593 21.070313-21.070312s-9.433594-21.070312-21.070313-21.070312v-185.285157c11.636719 0 21.070313-9.433593 21.070313-21.074219h-30c0 11.640626-9.433594 21.074219-21.070313 21.074219v185.285157c11.636719 0 21.070313 9.433593 21.070313 21.070312s-9.433594 21.070312-21.070313 21.070312v185.285157c11.636719 0 21.070313 9.433593 21.070313 21.074219h30c0-11.640626-9.433594-21.074219-21.070313-21.074219zm0 0" fill="#ff7956"/><path d="m59.917969 58.570312h30v394.859376h-30zm0 0" fill="#57565c"/><path d="m255.34375 236.992188c-2.582031 1.15625-4.675781 3.195312-5.902344 5.734374-1.355468-.46875-2.777344-.691406-4.199218-.664062 2.984374.058594 5.953124 1.226562 8.230468 3.503906zm0 0" fill="#ff7956"/><path d="m219.441406 242.726562c1.9375-4.011718 6.046875-6.777343 10.804688-6.777343.472656 0 .9375.027343 1.398437.082031-1.039062-1.773438-2.585937-3.207031-4.441406-4.105469 1.265625-3.636719.445313-7.832031-2.457031-10.738281-2.90625-2.902344-7.105469-3.722656-10.738282-2.457031-1.675781-3.464844-5.222656-5.855469-9.332031-5.855469-4.105469 0-7.652343 2.390625-9.332031 5.855469-1.824219-.636719-3.792969-.746094-5.667969-.328125 1.859375.414062 3.625 1.339844 5.070313 2.785156 2.902344 2.90625 3.722656 7.101562 2.457031 10.738281 3.464844 1.675781 5.851563 5.222657 5.851563 9.332031 0 4.105469-2.386719 7.652344-5.851563 9.332032 1.265625 3.632812.445313 7.832031-2.457031 10.734375-1.152344 1.152343-2.503906 1.972656-3.945313 2.46875l6.695313 6.695312c-.074219-.546875-.117188-1.105469-.117188-1.675781 0-4.753906 2.769532-8.863281 6.78125-10.804688-1.464844-4.207031-.515625-9.070312 2.847656-12.433593 3.359376-3.363281 8.222657-4.3125 12.433594-2.847657zm0 0" fill="#ff7956"/><path d="m126.179688 306.660156-25.363282-116.433594 47.171875-99.664062h-30l-47.171875 99.664062 33.164063 152.242188 7.023437-5.140625zm0 0" fill="#ff7956"/><path d="m155.574219 351.898438 83.925781-42.175782 3.132812-14.394531c-.535156-.105469-1.0625-.25-1.582031-.429687-1.941406 4.011718-6.050781 6.777343-10.804687 6.777343-1.265625 0-2.484375-.195312-3.625-.554687l-101.046875 50.777344-15.058594 20.578124 10.667969 48.960938h30l-10.667969-48.960938zm0 0" fill="#ff7956"/><path d="m185.554688 218.324219c-.296876.054687-.585938.117187-.878907.199219.226563.0625.449219.128906.667969.207031.070312-.136719.140625-.273438.210938-.40625zm0 0" fill="#ff3f62"/><path d="m185.34375 263.785156c-.21875.074219-.441406.144532-.667969.207032.289063.078124.582031.144531.878907.199218-.070313-.132812-.140626-.269531-.210938-.40625zm0 0" fill="#ff3f62"/><path d="m174.609375 261.324219c-2.90625-2.902344-3.722656-7.101563-2.457031-10.738281-3.464844-1.675782-5.855469-5.222657-5.855469-9.328126 0-4.109374 2.390625-7.65625 5.855469-9.332031-1.265625-3.636719-.449219-7.835937 2.457031-10.738281 2.5-2.5 5.957031-3.453125 9.191406-2.867188-1.75-3.242187-5.179687-5.445312-9.125-5.445312-4.105469 0-7.652343 2.390625-9.328125 5.855469-3.636718-1.265625-7.835937-.445313-10.738281 2.457031-2.90625 2.902344-3.722656 7.101562-2.457031 10.738281-3.464844 1.675781-5.855469 5.222657-5.855469 9.332031 0 4.105469 2.390625 7.652344 5.855469 9.328126-1.265625 3.636718-.449219 7.835937 2.457031 10.738281 2.902344 2.90625 7.101563 3.722656 10.738281 2.457031 1.675782 3.464844 5.222656 5.855469 9.328125 5.855469 3.945313 0 7.375-2.203125 9.125-5.445313-3.234375.589844-6.691406-.367187-9.191406-2.867187zm0 0" fill="#ff3f62"/><path d="m239.441406 294.898438c-4.210937 1.464843-9.074218.515624-12.4375-2.847657-3.363281-3.363281-4.308594-8.226562-2.84375-12.433593-4.011718-1.941407-6.78125-6.050782-6.78125-10.804688s2.769532-8.863281 6.78125-10.804688c-1.464844-4.210937-.519531-9.070312 2.84375-12.433593 3.363282-3.363281 8.226563-4.3125 12.4375-2.847657.234375-.492187.503906-.960937.804688-1.410156-2.148438-3.234375-5.828125-5.371094-10-5.371094-4.757813 0-8.867188 2.769532-10.804688 6.78125-4.210937-1.464843-9.074218-.515624-12.4375 2.847657-3.363281 3.363281-4.308594 8.222656-2.84375 12.433593-4.011718 1.941407-6.78125 6.050782-6.78125 10.804688s2.769532 8.863281 6.78125 10.804688c-1.464844 4.207031-.519531 9.070312 2.84375 12.433593 3.363282 3.363281 8.226563 4.3125 12.4375 2.847657 1.9375 4.011718 6.046875 6.777343 10.804688 6.777343 4.171875 0 7.851562-2.132812 10-5.367187-.300782-.449219-.570313-.921875-.804688-1.410156zm0 0" fill="#ff3f62"/><path d="m93.234375 364.964844 26.21875-19.1875-8.449219-8.449219-37.769531 27.636719 24.703125 24.703125 8.453125-11.550781zm0 0" fill="#ffc477"/><path d="m141.003906 337.328125 33.492188-67.691406c-4.027344-.070313-7.5-2.441407-9.152344-5.855469-3.632812 1.265625-7.832031.449219-10.734375-2.457031-1.722656-1.71875-2.707031-3.894531-2.960937-6.140625l-40.644532 82.144531 14.570313 14.570313 19.964843-10.03125zm0 0" fill="#ffc477"/><path d="m305.332031 28.570312c0-8.015624 4.480469-14.988281 11.070313-18.550781-2.972656-1.609375-6.378906-2.519531-10-2.519531-11.636719 0-21.070313 9.433594-21.070313 21.070312 0 11.636719 9.433594 21.070313 21.070313 21.070313 3.621094 0 7.027344-.910156 10-2.519531-6.589844-3.558594-11.070313-10.53125-11.070313-18.550782zm0 0" fill="#e5e4e6"/><path d="m305.332031 256c0-8.019531 4.480469-14.988281 11.070313-18.550781-2.972656-1.609375-6.378906-2.519531-10-2.519531-11.636719 0-21.070313 9.433593-21.070313 21.070312s9.433594 21.070312 21.070313 21.070312c3.621094 0 7.027344-.914062 10-2.519531-6.589844-3.5625-11.070313-10.53125-11.070313-18.550781zm0 0" fill="#e5e4e6"/><path d="m305.332031 483.429688c0-8.019532 4.480469-14.992188 11.070313-18.550782-2.972656-1.609375-6.378906-2.523437-10-2.523437-11.636719 0-21.070313 9.433593-21.070313 21.074219 0 11.636718 9.433594 21.070312 21.070313 21.070312 3.621094 0 7.027344-.914062 10-2.519531-6.589844-3.5625-11.070313-10.535157-11.070313-18.550781zm0 0" fill="#e5e4e6"/><path d="m27.5 28.570312c0-8.015624 4.480469-14.988281 11.070312-18.550781-2.972656-1.609375-6.378906-2.519531-10-2.519531-11.636718 0-21.070312 9.433594-21.070312 21.070312 0 11.636719 9.433594 21.070313 21.070312 21.070313 3.621094 0 7.027344-.910156 10-2.519531-6.589843-3.558594-11.070312-10.53125-11.070312-18.550782zm0 0" fill="#e5e4e6"/><path d="m27.5 256c0-8.019531 4.480469-14.988281 11.070312-18.550781-2.972656-1.609375-6.378906-2.519531-10-2.519531-11.636718 0-21.070312 9.433593-21.070312 21.070312s9.433594 21.070312 21.070312 21.070312c3.621094 0 7.027344-.914062 10-2.519531-6.589843-3.5625-11.070312-10.53125-11.070312-18.550781zm0 0" fill="#e5e4e6"/><path d="m27.5 483.429688c0-8.019532 4.480469-14.992188 11.070312-18.550782-2.972656-1.609375-6.378906-2.523437-10-2.523437-11.636718 0-21.070312 9.433593-21.070312 21.074219 0 11.636718 9.433594 21.070312 21.070312 21.070312 3.621094 0 7.027344-.914062 10-2.519531-6.589843-3.5625-11.070312-10.535157-11.070312-18.550781zm0 0" fill="#e5e4e6"/><path d="m222.746094 261.3125h15v15h-15zm0 0"/><path d="m167.175781 233.757812h15v15h-15zm0 0"/><path d="m334.972656 256c0-13.160156-8.941406-24.269531-21.070312-27.574219v-172.28125c12.128906-3.304687 21.070312-14.414062 21.070312-27.574219 0-15.753906-12.816406-28.570312-28.570312-28.570312-13.160156 0-24.269532 8.941406-27.570313 21.070312h-222.6875c-3.304687-12.128906-14.414062-21.070312-27.574219-21.070312-15.753906 0-28.570312 12.816406-28.570312 28.570312 0 13.160157 8.945312 24.269532 21.070312 27.574219v172.285157c-12.125 3.300781-21.070312 14.410156-21.070312 27.570312s8.945312 24.269531 21.070312 27.574219v172.28125c-12.125 3.304687-21.070312 14.414062-21.070312 27.574219 0 15.753906 12.816406 28.570312 28.570312 28.570312 13.160157 0 24.269532-8.941406 27.574219-21.070312h222.6875c3.300781 12.128906 14.410157 21.070312 27.570313 21.070312 15.753906 0 28.570312-12.816406 28.570312-28.570312 0-13.160157-8.941406-24.269532-21.070312-27.574219v-172.28125c12.128906-3.304688 21.070312-14.414063 21.070312-27.574219zm-56.140625 219.929688h-222.6875c-2.652343-9.738282-10.335937-17.421876-20.074219-20.074219v-172.28125c6.777344-1.847657 12.5625-6.132813 16.34375-11.851563v189.207032h230.144532v-189.207032c3.78125 5.71875 9.566406 10.003906 16.34375 11.851563v172.28125c-9.734375 2.652343-17.417969 10.335937-20.070313 20.074219zm-222.6875-439.859376h222.6875c2.652344 9.738282 10.335938 17.421876 20.070313 20.074219v172.285157c-6.777344 1.84375-12.558594 6.128906-16.34375 11.847656v-189.207032h-230.140625v189.207032c-3.785157-5.71875-9.570313-10.003906-16.347657-11.851563v-172.28125c9.738282-2.652343 17.421876-10.335937 20.074219-20.074219zm211.414063 140.910157-44.457032-93.917969h-109.859374l-45.824219 96.808594v-113.800782h200.140625zm-200.140625 192.773437 31.40625 31.402344 19.25-26.304688v8.992188h15v-13.835938l7.917969 7.917969 10.609374-10.605469-13.382812-13.382812 89.421875-44.9375c.859375.117188 1.726563.179688 2.605469.179688 5.414062 0 10.542968-2.296876 14.179687-6.132813 5.269531.144531 10.53125-1.863281 14.359375-5.691406h.003906c3.828126-3.828125 5.828126-9.078125 5.6875-14.363281 1.179688-1.117188 2.214844-2.378907 3.082032-3.746094v166.683594h-200.140625zm91.816406-140.292968c-.285156-.820313-.257813-2.03125.679687-2.96875.933594-.9375 2.144532-.96875 2.964844-.679688l6.3125 2.195312 2.90625-6.011718c.378906-.785156 1.253906-1.621094 2.578125-1.621094s2.203125.839844 2.582031 1.621094l2.910157 6.011718 6.304687-2.195312c.820313-.285156 2.035156-.257812 2.96875.679688.9375.9375.964844 2.148437.679688 2.96875l-2.195313 6.308593 6.015625 2.910157c.78125.378906 1.617188 1.253906 1.617188 2.578124 0 1.324219-.835938 2.199219-1.617188 2.578126l-6.015625 2.90625 2.195313 6.3125c.285156.820312.257812 2.03125-.679688 2.96875-.933594.9375-2.144531.960937-2.96875.675781l-6.304687-2.191407-2.910157 6.011719c-.378906.78125-1.257812 1.621094-2.582031 1.621094s-2.199219-.839844-2.578125-1.621094l-2.90625-6.011719-6.308594 2.191407c-.824218.285156-2.035156.261719-2.96875-.675781-.9375-.9375-.964843-2.148438-.679687-2.96875l2.191406-6.308594-6.011719-2.910156c-.78125-.378907-1.617187-1.253907-1.617187-2.578126 0-1.324218.835937-2.203124 1.617187-2.582031l6.011719-2.90625zm52.007813 26.082031c-.574219-1.648438-.164063-3.433594 1.066406-4.664063 1.230468-1.230468 3.019531-1.640625 4.664062-1.066406l6.308594 2.195312 2.910156-6.015624c.757813-1.566407 2.3125-2.542969 4.054688-2.542969 1.738281 0 3.292968.976562 4.050781 2.542969l2.910156 6.015624 6.308594-2.195312c1.648437-.574219 3.4375-.164062 4.664063 1.066406 1.230468 1.230469 1.640624 3.019532 1.066406 4.664063l-2.191406 6.308593 6.011718 2.90625c1.566406.761719 2.542969 2.3125 2.542969 4.054688s-.976563 3.296875-2.542969 4.054688l-6.011718 2.90625 2.191406 6.308593c.574218 1.648438.164062 3.4375-1.066406 4.667969-1.230469 1.230469-3.015626 1.640625-4.664063 1.066406l-6.308594-2.195312-2.910156 6.011718c-.757813 1.570313-2.3125 2.546876-4.050781 2.546876-1.742188 0-3.296875-.976563-4.054688-2.546876l-2.910156-6.011718-6.308594 2.195312c-1.644531.570313-3.433594.164063-4.664062-1.066406-1.230469-1.230469-1.640625-3.019531-1.066406-4.664062l2.195312-6.3125-6.015625-2.90625c-1.566406-.757813-2.542969-2.3125-2.542969-4.054688 0-1.738281.976563-3.292969 2.546875-4.054688l6.011719-2.90625zm-58.199219 13.9375c2.71875 1.550781 5.816406 2.367187 8.941406 2.367187h.019531c3.308594 3.316406 7.867188 5.289063 12.671875 5.289063 4.804688 0 9.363281-1.972657 12.671875-5.289063h.023438c.910156 0 1.820312-.070312 2.71875-.207031.648437 4.347656 2.761718 8.355469 5.921875 11.351563-.140625 5.285156 1.863281 10.535156 5.691406 14.363281 1.992187 1.992187 4.371094 3.492187 6.941406 4.453125l-81.597656 40.957031-3.457031-3.457031-3.476563-3.480469zm-42.796875 77.695312 5.480468 5.480469-18.671874 25.519531-12.328126-12.324219zm157.3125-88.792969c-.867188-1.367187-1.902344-2.628906-3.082032-3.75.140626-5.28125-1.863281-10.535156-5.691406-14.363281s-9.089844-5.828125-14.359375-5.6875c-3.636719-3.835937-8.765625-6.132812-14.179687-6.132812-5.414063 0-10.542969 2.296875-14.179688 6.132812-2.199218-.058593-4.390625.253907-6.476562.914063-.894532-2.597656-2.378906-4.96875-4.324219-6.910156.007813-4.683594-1.820313-9.304688-5.21875-12.699219-3.390625-3.394531-8-5.21875-12.675781-5.21875h-.023438c-2.929687-2.9375-6.839844-4.820313-11.03125-5.214844v-11.871094h19.292969v-15h-19.292969v-19.296875h-15v19.296875h-19.296875v15h19.296875v17.097657c-4.445312.164062-8.78125 1.976562-12.011718 5.207031-3.394532 3.394531-5.226563 8.015625-5.21875 12.699219-3.316407 3.308593-5.289063 7.867187-5.289063 12.671874 0 4.742188 1.921875 9.25 5.164063 12.546876l-38.867188 78.554687-37.679688 27.570313v-150.0625l23.785157 109.171874 14.65625-3.191406-27.171875-124.722656 44.050781-93.0625h90.871094l44.050781 93.0625-6.988281 32.078125 14.65625 3.195313 2.234375-10.25zm52.414062-2.382812c0 7.484375-6.085937 13.570312-13.570312 13.570312-7.480469 0-13.570313-6.085937-13.570313-13.570312s6.089844-13.570312 13.570313-13.570312c7.484375 0 13.570312 6.085937 13.570312 13.570312zm-13.570312-241c7.484375 0 13.570312 6.089844 13.570312 13.570312 0 7.484376-6.085937 13.570313-13.570312 13.570313-7.480469 0-13.570313-6.085937-13.570313-13.570313 0-7.480468 6.089844-13.570312 13.570313-13.570312zm-291.402344 13.570312c0-7.480468 6.089844-13.570312 13.570312-13.570312 7.484376 0 13.570313 6.089844 13.570313 13.570312 0 7.484376-6.085937 13.570313-13.570313 13.570313-7.480468 0-13.570312-6.085937-13.570312-13.570313zm0 227.429688c0-7.484375 6.089844-13.570312 13.570312-13.570312 7.484376 0 13.570313 6.085937 13.570313 13.570312s-6.085937 13.570312-13.570313 13.570312c-7.480468 0-13.570312-6.085937-13.570312-13.570312zm13.570312 241c-7.480468 0-13.570312-6.089844-13.570312-13.570312 0-7.484376 6.089844-13.570313 13.570312-13.570313 7.484376 0 13.570313 6.085937 13.570313 13.570313 0 7.480468-6.085937 13.570312-13.570313 13.570312zm291.402344-13.570312c0 7.480468-6.085937 13.570312-13.570312 13.570312-7.480469 0-13.570313-6.089844-13.570313-13.570312 0-7.484376 6.089844-13.570313 13.570313-13.570313 7.484375 0 13.570312 6.085937 13.570312 13.570313zm0 0"/><path d="m209.121094 413.9375h-81.898438l-3.691406-16.957031-14.65625 3.191406 6.265625 28.765625h106.0625l23.179687-106.410156-14.65625-3.191406zm0 0"/><path d="m187.703125 394.839844 12.59375-57.789063 14.65625 3.195313-12.59375 57.785156zm0 0" fill="#fff"/><path d="m232.511719 196.433594-15.371094-32.46875 13.558594-6.417969 15.371093 32.46875zm-19.648438-41.507813-6.417969-13.558593 13.558594-6.417969 6.417969 13.558593zm-10.695312-22.597656-6.417969-13.558594 13.558594-6.417969 6.417968 13.558594zm0 0" fill="#fff"/></svg>